<?xml version="1.0" encoding="UTF-8"?>
<svg id="Calque_1" xmlns="http://www.w3.org/2000/svg" version="1.1" viewBox="0 0 512 512">
  <!-- Generator: Adobe Illustrator 29.1.0, SVG Export Plug-In . SVG Version: 2.1.0 Build 142)  -->
  <defs>
    <style>
      .st0 {
        fill: #f57c0b;
      }

      .st1 {
        fill: #faf9f7;
      }
    </style>
  </defs>
  <path class="st0" d="M393.4,281.9v23.6c0,.9-.3,1.2-1.1,1.3-4.4.6-8.8.6-13.2,0-.7-.1-1-.4-1-1.2v-78.3c0-1.3.4-2.1,1.4-2.8,9.3-6.6,19.7-9.4,31-8.5,7.3.6,14.1,2.8,19.8,7.7,5.7,4.9,8.8,11.2,10,18.5,1.3,8.2.7,16.3-3.2,23.8-5,9.7-13.2,15.2-23.8,17-6.4,1.2-12.8.7-19.1-1-.3,0-.5,0-.9-.1h.1ZM393.4,250v16.1c0,.9.3,1.4,1.1,1.7,4.4,1.8,9.1,2.2,13.8,1.9,7.4-.4,13.6-5.1,16-12.1,1.4-3.9,1.7-7.9,1-12-1.1-6.8-4.5-11.9-11.1-14.4-6.8-2.6-13.5-1.9-20,1.2-.8.4-.8.8-.8,1.5v16h0Z"/>
  <path class="st0" d="M370.5,249.4v42.9c0,1-.3,1.5-1.3,1.9-11.2,5-22.9,7-35,5.8-5.8-.5-11.2-2.2-15.7-6.1-4.6-4-6.7-9.3-7.3-15.3-.4-3.7-.2-7.5-.2-11.3v-31.2c0-1.1.3-1.5,1.4-1.7,4.2-.5,8.4-.5,12.6,0,1.1.1,1.5.5,1.5,1.7v33.8c0,11.3.1,4.3.5,6.4,1,5.7,4,8.9,9.7,9.8,5.8.9,11.5.5,17.1-1.4,1-.4,1.4-.8,1.4-1.9v-76c0-1.3.2-1.9,1.7-2.1,4.3-.5,8.5-.5,12.8.1,1.1.1,1,.8,1,1.5v42.9l-.2.2h0Z"/>
  <path class="st1" d="M234.4,271.1h-21.2c-1.1,0-1.4.3-1.2,1.4,1.3,9.4,8,15.3,17.5,15.6,6.8.2,12.9-1.8,18.4-5.8.9-.7,1.5-.6,2.3,0,2.6,2.3,4.3,5.1,5.2,8.4.2.8,0,1.3-.6,1.9-8.3,6.3-17.8,8.8-28.2,8.3-4.9-.3-9.5-1.4-13.9-3.6-7.5-3.9-12.5-9.9-14.9-17.9-3-10-2.5-19.9,2.3-29.3,6.1-11.8,18.6-18.3,31.8-16.7,8.4,1,15.4,4.5,20.3,11.4,3.2,4.4,4.7,9.4,5.1,14.8.2,3.5,0,6.9-.3,10.3,0,.9-.4,1.3-1.4,1.3h-21.3,0ZM239.7,261c2,0,2.8-1,2.7-3-.6-5.8-4.2-10.3-9.5-11.8-3.2-.9-6.3-.9-9.5,0-6.2,1.8-10.2,7-11.3,13.9-.1.9.4.8,1,.8h26.7,0Z"/>
  <path class="st1" d="M109.5,271.1h-21.3c-1,0-1.3.2-1.1,1.3.4,2.3,1,4.5,2.1,6.5,3,5.8,8,8.6,14.4,9.1,7.2.5,13.7-1.5,19.5-5.8.9-.6,1.4-.6,2.2,0,2.7,2.3,4.5,5.2,5.3,8.6.2.7,0,1.1-.5,1.5-6.2,4.8-13.2,7.5-20.9,8.2-6.9.7-13.7,0-20-2.8-9.4-4.3-14.9-11.8-16.9-21.7-2.1-9.8-1.1-19.4,4.3-28,7.1-11.2,17.5-15.9,30.6-14.7,8.1.7,15,4.1,20,10.7,3.7,4.8,5.3,10.4,5.6,16.4.1,3.2,0,6.3-.4,9.5-.1,1-.5,1.2-1.4,1.2h-21.5ZM102.2,261h14.3c.5,0,1,.1,1.1-.8.3-5.8-3.5-11.7-8.8-13.7-9.9-3.6-20.4,3-21.7,13.4,0,.9,0,1.1,1,1.1h14.1Z"/>
  <path class="st1" d="M165,284.4c3.9-8.9,7.2-18,10-27.2,2.1-6.9,4.1-13.8,5.8-20.8.3-1,.6-1.4,1.7-1.5,4.5-.6,8.9-.4,13.2.6.9.2,1.1.6.9,1.5-5.4,21.3-13.1,41.6-23.9,60.7-.4.8-.9,1.2-1.8,1.4-4.3.6-8.6.6-12.9,0-.8-.1-1-.6-1.4-1.2-7.4-12.5-13.2-25.6-17.8-39.4-2.4-7.1-4.5-14.3-6.4-21.6-.3-.9,0-1.1.8-1.3,4.7-1,9.4-1.4,14.2-.7,1,.1,1.4.5,1.6,1.4,2.7,11,6.1,21.7,9.9,32.3s4,10.4,6.2,15.7h-.1Z"/>
  <path class="st1" d="M264.4,270.5v-26.9c0-1,.3-1.6,1.1-2.2,6.1-4.6,13.1-7.1,20.7-8,6.1-.7,12.2-.5,18.1,1.3,1,.3,1.4.7,1.3,1.8-.3,3.9-1.2,7.5-3.2,10.8-.5.8-.9,1.1-2,.8-5.9-1.3-11.9-1.5-17.8.4-1.8.6-2.7,1.9-2.7,3.8v45.2c0,1.1-.3,1.5-1.4,1.6-4.2.5-8.5.5-12.8,0-1-.1-1.3-.5-1.3-1.5v-27.2h0Z"/>
</svg>