<?xml version="1.0" encoding="UTF-8"?>
<svg id="Calque_1" xmlns="http://www.w3.org/2000/svg" version="1.1" viewBox="0 0 512 512">
  <!-- Generator: Adobe Illustrator 29.1.0, SVG Export Plug-In . SVG Version: 2.1.0 Build 142)  -->
  <defs>
    <style>
      .st0 {
        fill: #ed7614;
      }

      .st1 {
        fill: #293b7c;
      }

      .st2 {
        fill: #f29322;
      }
    </style>
  </defs>
  <path class="st0" d="M202.1,101.8c5.7-2.5,11.4-5.1,17.3-7.1,14.8-5.3,29.9-8.5,45.7-8.1,33.8.8,61.1,22,69.7,54.3,1.8,6.8,2.8,13.8,3.3,20.8.1,2-.7,3.3-2.2,3.5-1.4.2-2.8-.8-3.1-2.6-.6-2.9-.9-5.9-1.3-8.8-2.5-16.7-11-29.6-24.6-39.8-13.9-10.4-29.5-15-46.8-14.3-6,.2-11.7,2.3-17.2,4.5-7.4,2.9-14.6,6.4-21.4,10.6-2.9,1.4-5.4,3.3-8.2,4.9-1.3.9-2.5,1.7-3.8,2.6-29.4,22.5-55.8,48-78.6,77-23.4,29.6-40.8,62.4-51,98.7-.9,3.2-1.9,6.5-2.5,9.8-1.1,4.1-2.1,8.2-2.7,12.4-.3.4-.3.9-.3,1.3-.5,3.6-.5,7.3-.4,11,0,6.5.5,12.9,1.5,19.3.2,1.8.5,3.7.7,5.6.7,3.9,1.5,7.7,2.4,11.6,3.5,16,13.6,25.8,29,30.7,7.4,2.4,15,3.4,22.7,3.6,3.8,0,7.6,0,11.4-.5,2.5,0,5.1-.4,7.6-.9,3-.1,6-1.1,9-1.5,2.1-.7,4.4-.9,6.4-2,3.8-.6,7.4-2,10.9-3.5,26-10.8,49.7-25.4,70.7-44.2,2.7-2.4,5.2-4.9,7.9-7.3.8-.8,1.6-1.4,2.7-1.8,1-.4,2-.1,2.7.6.7.8.8,1.7.5,2.6-.3.6-.6,1.2-1.1,1.7-20.3,21.2-43.1,39.4-69.7,52.6-2.2,1.1-4.5,2.1-6.8,3.1-1.8.9-3.7,1.8-5.5,2.7-4.5,1.6-9,3.2-13.5,4.9-2.3.7-4.6,1.3-7,2-5.4,1.2-10.7,2.4-16.2,3.1-17.2,2.1-33.9.6-49.5-7.5-18.1-9.4-29.1-24.5-35.2-43.4-3.2-9.9-4.6-20.2-5-30.5v-7.1c0-11.6,1.7-23.1,4-34.5,1.1-5.5,2.8-11,4.1-16.4,2.3-6.7,4.6-13.4,7-20.1.3-.6.6-1.1.8-1.7,6.9-17.2,15.5-33.5,25.6-49,18.9-29.2,41.8-55,69.4-76.6,4-3.1,8-6,12-9,3.1-2,6.2-4.1,9.3-6.1,2.9-1.4,5.7-3.2,8.5-4.9,3.6-1.9,7.3-3.8,11-5.7h-.2v-.6Z"/>
  <path class="st1" d="M65.3,251.7c-2.4,6.6-4.7,13.2-7.1,19.7-3.9-15.2-6.5-30.6-7.3-46.3-1.1-21.9,1-43.5,7.8-64.5,1.2-3.6,2.5-7.1,3.7-10.7.4,0,.3-.4.4-.6,2.1-4.3,4-8.7,6.4-12.8,1.2-2.1,2.7-4.1,3.6-6.3,2.3-3,4.4-6.1,6.8-9,12.9-16,29.4-27.2,50.1-32.1,18-4.2,35.7-2.7,53.2,3,7.6,2.5,14.8,5.7,21.9,9.4-3.7,1.9-7.5,3.8-11.2,5.6-4.8-2.2-9.8-3.4-15-4.4-11.5-2.1-23-1.9-34.6-1.1-13.7,1-25.9,5.8-36.7,13.7-1.1.8-2.3,1.4-3,2.6-.3,0-.5,0-.6.3-5.1,4.1-9.4,8.9-13.1,14.2-4.8,6.4-8.5,13.4-11.5,20.6-7.1,16.8-11.5,34.3-13.5,52.4-1.8,15.5-1.8,30.9,0,46.4h-.2Z"/>
  <path class="st2" d="M71.1,127.6c-.8,2.3-2.2,4.3-3.3,6.5-2.2,4.3-3.9,8.9-5.9,13.3-.2.1-.6.2-.3.6-.7-.3-1,.4-1.4.7-5.2,4.3-10.2,8.9-14.7,14-10.9,12-19.3,25.7-23.9,41.9-5.7,20.2-5.1,40.5-.4,60.7,5.1,22.1,14.9,41.6,28,59.4.3.4.6.9,1.1,1v7.3c-18.3-21.7-31.9-46.1-37.8-75-5.7-27.5-3.1-54,9.1-79.1,8.5-17.4,20.8-31.1,35.7-42.3,4.5-3.3,9.1-6.4,13.9-9.1h0Z"/>
  <path class="st1" d="M163.6,412.8c2.3-.6,4.6-1.2,6.9-1.9,18.3,8.4,37.4,12.2,57.7,8.6,7.5-1.3,14.7-3.6,21.4-7.2,2.3-1,4.5-2.1,6.4-3.6,0,0,.3-.1.4-.2,6.8-4,12.5-9.1,17.7-14.7,7.3-7.9,12.9-16.8,17.4-26.4.5-.9.8-1.9,1.6-2.7.8-.7,1.7-1,2.7-.6,1,.5,1.4,1.3,1.2,2.3,0,.6-.4,1.2-.6,1.8-6.7,15.1-16,28.4-29.4,38.8,0,0-.1.2-.2.3-1.8,1.3-3.7,2.6-5.5,3.9-6.8,4.2-14.1,7.8-21.8,10.2-18.6,5.8-37.2,5.1-55.6-.5-7-2.1-13.7-4.9-20.2-8.2h-.1Z"/>
  <path class="st1" d="M81.4,324.6c.6-4.1,1.5-8.1,2.6-12.1,7.5,21.4,18.2,41.1,32.6,58.7,4.5,5.5,9.4,10.8,14.7,15.6.2.1.4.3.5.4,2.4,2.6,5.2,4.8,8,7,4.2,3.6,8.8,6.8,13.5,9.8-2.4.6-4.8.9-7.3.9-1.8-1.3-3.5-2.6-5.2-3.9-5.8-4.3-11.1-9.2-16.4-14.2-2.4-2.6-4.8-5.2-7.4-7.7,0-.4,0-.7-.6-.5.2-.7-.5-1-.9-1.4-7.8-8.9-14.7-18.5-21-28.5-4.8-7.8-9.1-16-13.1-24.2h0Z"/>
  <path class="st1" d="M214.9,121.8c2.9-1.4,5.5-3.3,8.4-4.5,2.9,2.1,5.8,4.3,8.8,6.4,2.9,2.3,5.8,4.7,8.6,7.1.2.2.2.6.7.3,0,.7.7.9,1.1,1.3,13.7,12.3,24.9,26.2,33.2,42,.4.8.8,1.5.9,2.4,0,.7,0,1.4-.8,1.8-.8.4-1.6.3-2.4,0-.9-.5-1.6-1.3-2.1-2.1-12.3-20-29.4-36.1-49.6-49.8-.4-.3-.8-.5-1.2-.7,0-.2-.2-.3-.5-.3-.3-.5-1-.7-1.4-1.1-1.2-1-2.8-1.4-3.6-2.7h-.1Z"/>
  <path class="st2" d="M256,415.2c1.9-1.5,3.8-2.9,5.7-4.4,6.1-.6,12.1-1.9,18-3.3,22.6-5.4,43.5-14.7,61.9-29.5,14.5-11.6,26-25.7,33.8-42.8,0-.2.1-.3.2-.5.6-1,1.2-2.2,2.6-1.6,1.5.6,1.1,1.9.6,3.1-4.6,10.6-10.7,20.2-18.3,28.8-16.6,18.6-36.9,31.4-60,39.9-14.4,5.3-29.3,8.6-44.5,10.2h0Z"/>
  <path class="st2" d="M243.5,124.9c-2.7-2.5-5.4-5-8.1-7.6,2.4.3,4.6,1.3,6.9,2,18.4,6.1,35.9,14.4,52.4,24.7.2.1.4.2.6.4,1.1.7,2.4,1.4,1.5,2.9-.9,1.4-2.2.6-3.2,0-15-9.4-31-16.5-47.8-21.7-.5-.2-1-.5-1.6-.3,0-.4-.4-.3-.7-.4h0Z"/>
  <path class="st2" d="M256,410.8c-1.9,1.8-4.1,3.2-6.4,4.3-9.9.1-19.8.3-29.6-.7-12.1-1.2-24-3.3-35.8-6.5,1.8-1,3.6-2,5.4-3,.2.9.9.7,1.4.8,19.3,4.6,38.7,6.4,58.4,5.4,2.2-.1,4.4-.3,6.7-.4h-.1Z"/>
  <path class="st2" d="M139.5,393.8c-2.4-2.9-4.7-5.9-6.8-9.4,2.1.9,4,2.6,6,3.9,7.7,5.1,15.5,9.6,23.5,13.2.4.2.9.5,1.3.8-1.6,1.4-3.5,1.7-5.2,2.6,0-1.3-.7-1-1.1-1.2-5.5-2.7-10.9-5.8-16.2-9.2-.5-.3-.9-.8-1.5-.6h0Z"/>
  <path class="st2" d="M219.4,117.3c1,3.4,2.8,4.7,4.1,7.2.5,1,1.3,1.6,1.7,3-2.7-.3-5.4-2.3-8-3.3-.7-.2-1.5-.5-2.2-.6,1.5-2.1,2.9-4.3,4.4-6.4h0Z"/>
  <path class="st2" d="M105,113.9c2.2,0,4.3-.8,6.4-1.3,19.8-4.6,39.9-6,60.2-5.3,4.2.2,8.3.3,12.5.9-3.1,1.9-6.2,3.8-9.3,5.7-20.7-.9-41.2,0-61.3,5.7-7,2-13.8,4.6-20.5,7.5-.5.2-1,.4-1.4.5,3.6-5,7.8-9.6,12.8-13.5.2,0,.6.2.5-.3h0Z"/>
  <path class="st2" d="M81.4,353.6c7.7,6.4,15.8,12.5,24.3,17.8,2.9,1.8,5.7,3.8,9,5.1,0,.3.3.3.6.4,2.6,2.4,4.9,5,7.2,7.5-13.8-6.9-26.9-15.2-39-24.7-.4-.3-.7-.8-1.4-.8-.2-1.8-.4-3.5-.6-5.3h0Z"/>
  <path class="st0" d="M454.9,287.1v23.6c0,.9-.3,1.2-1.1,1.3-4.4.6-8.8.6-13.2,0-.7-.1-1-.4-1-1.2v-78.3c0-1.3.4-2.1,1.4-2.8,9.3-6.6,19.7-9.4,31-8.5,7.3.6,14.1,2.8,19.8,7.7,5.7,4.9,8.8,11.2,10,18.5,1.3,8.2.7,16.3-3.2,23.8-5,9.7-13.2,15.2-23.8,17-6.4,1.2-12.8.7-19.1-1-.3,0-.5,0-.9-.1h.1ZM454.9,255.3v16.1c0,.9.3,1.4,1.1,1.7,4.4,1.8,9.1,2.2,13.8,1.9,7.4-.4,13.6-5.1,16-12.1,1.4-3.9,1.7-7.9,1-12-1.1-6.8-4.5-11.9-11.1-14.4-6.8-2.6-13.5-1.9-20,1.2-.8.4-.8.8-.8,1.5v16h0Z"/>
  <path class="st0" d="M432,254.7v42.9c0,1-.3,1.5-1.3,1.9-11.2,5-22.9,7-35,5.8-5.8-.5-11.2-2.2-15.7-6.1-4.6-4-6.7-9.3-7.3-15.3-.4-3.7-.2-7.5-.2-11.3v-31.2c0-1.1.3-1.5,1.4-1.7,4.2-.5,8.4-.5,12.6,0,1.1.1,1.5.5,1.5,1.7v33.8c0,11.3.1,4.3.5,6.4,1,5.7,4,8.9,9.7,9.8,5.8.9,11.5.5,17.1-1.4,1-.4,1.4-.8,1.4-1.9v-76c0-1.3.2-1.9,1.7-2.1,4.3-.5,8.5-.5,12.8.1,1.1.1,1,.8,1,1.5v42.9l-.2.2Z"/>
  <path class="st1" d="M296,276.4h-21.2c-1.1,0-1.4.3-1.2,1.4,1.3,9.4,8,15.3,17.5,15.6,6.8.2,12.9-1.8,18.4-5.8.9-.7,1.5-.6,2.3,0,2.6,2.3,4.3,5.1,5.2,8.4.2.8,0,1.3-.6,1.9-8.3,6.3-17.8,8.8-28.2,8.3-4.9-.3-9.5-1.4-13.9-3.6-7.5-3.9-12.5-9.9-14.9-17.9-3-10-2.5-19.9,2.3-29.3,6.1-11.8,18.6-18.3,31.8-16.7,8.4,1,15.4,4.5,20.3,11.4,3.2,4.4,4.7,9.4,5.1,14.8.2,3.5,0,6.9-.3,10.3,0,.9-.4,1.3-1.4,1.3h-21.3.1ZM301.2,266.2c2,0,2.8-1,2.7-3-.6-5.8-4.2-10.3-9.5-11.8-3.2-.9-6.3-.9-9.5,0-6.2,1.8-10.2,7-11.3,13.9-.1.9.4.8,1,.8h26.7-.1Z"/>
  <path class="st1" d="M171,276.4h-21.3c-1,0-1.3.2-1.1,1.3.4,2.3,1,4.5,2.1,6.5,3,5.8,8,8.6,14.4,9.1,7.2.5,13.7-1.5,19.5-5.8.9-.6,1.4-.6,2.2,0,2.7,2.3,4.5,5.2,5.3,8.6.2.7,0,1.1-.5,1.5-6.2,4.8-13.2,7.5-20.9,8.2-6.9.7-13.7,0-20-2.8-9.4-4.3-14.9-11.8-16.9-21.7-2.1-9.8-1.1-19.4,4.3-28,7.1-11.2,17.5-15.9,30.6-14.7,8.1.7,15,4.1,20,10.7,3.7,4.8,5.3,10.4,5.6,16.4.1,3.2,0,6.3-.4,9.5-.1,1-.5,1.2-1.4,1.2h-21.5ZM163.7,266.2h14.3c.5,0,1,.1,1.1-.8.3-5.8-3.5-11.7-8.8-13.7-9.9-3.6-20.4,3-21.7,13.4-.1.9.1,1.1,1,1.1h14.1Z"/>
  <path class="st1" d="M226.6,289.7c3.9-8.9,7.2-18,10-27.2,2.1-6.9,4.1-13.8,5.8-20.8.3-1,.6-1.4,1.7-1.5,4.5-.6,8.9-.4,13.2.6.9.2,1.1.6.9,1.5-5.4,21.3-13.1,41.6-23.9,60.7-.4.8-.9,1.2-1.8,1.4-4.3.6-8.6.6-12.9,0-.8-.1-1-.6-1.4-1.2-7.4-12.5-13.2-25.6-17.8-39.4-2.4-7.1-4.5-14.3-6.4-21.6-.3-.9,0-1.1.8-1.3,4.7-1,9.4-1.4,14.2-.7,1,.1,1.4.5,1.6,1.4,2.7,11,6.1,21.7,9.9,32.3s4,10.4,6.2,15.7h-.1Z"/>
  <path class="st1" d="M326,275.7v-26.9c0-1,.3-1.6,1.1-2.2,6.1-4.6,13.1-7.1,20.7-8,6.1-.7,12.2-.5,18.1,1.3,1,.3,1.4.7,1.3,1.8-.3,3.9-1.2,7.5-3.2,10.8-.5.8-.9,1.1-2,.8-5.9-1.3-11.9-1.5-17.8.4q-2.7.9-2.7,3.8v45.2c0,1.1-.3,1.5-1.4,1.6-4.2.5-8.5.5-12.8,0-1-.1-1.3-.5-1.3-1.5v-27.2h0Z"/>
</svg>