<svg xmlns="http://www.w3.org/2000/svg" width="300" height="200" viewBox="0 0 300 200" fill="none">
  <rect width="300" height="200" fill="white"/>
  <rect x="60" y="40" width="180" height="120" rx="8" fill="#F5F7FA"/>
  <path d="M80 120L120 80L160 110L200 60" stroke="#1e3a78" stroke-width="4" stroke-linecap="round" stroke-linejoin="round"/>
  <circle cx="80" cy="120" r="8" fill="#1e3a78"/>
  <circle cx="120" cy="80" r="8" fill="#FF7F00"/>
  <circle cx="160" cy="110" r="8" fill="#4a68b1"/>
  <circle cx="200" cy="60" r="8" fill="#1e3a78"/>
  <rect x="70" y="140" width="40" height="8" rx="4" fill="#E0E0E0"/>
  <rect x="120" y="140" width="40" height="8" rx="4" fill="#E0E0E0"/>
  <rect x="170" y="140" width="40" height="8" rx="4" fill="#E0E0E0"/>
  <rect x="220" y="140" width="10" height="8" rx="4" fill="#E0E0E0"/>
  <path d="M150 30C150 27.2386 152.239 25 155 25H165C167.761 25 170 27.2386 170 30V40C170 42.7614 167.761 45 165 45H155C152.239 45 150 42.7614 150 40V30Z" fill="#FF7F00"/>
  <path d="M155 32.5L160 37.5L165 32.5" stroke="white" stroke-width="2" stroke-linecap="round" stroke-linejoin="round"/>
  <circle cx="220" cy="40" r="15" fill="#4a68b1" fill-opacity="0.3"/>
  <circle cx="60" cy="60" r="10" fill="#FF7F00" fill-opacity="0.3"/>
</svg> 