<svg xmlns="http://www.w3.org/2000/svg" width="300" height="200" viewBox="0 0 300 200" fill="none">
  <rect width="300" height="200" fill="white"/>
  <circle cx="150" cy="100" r="60" fill="#F5F7FA"/>
  <path d="M120 100C120 83.4315 133.431 70 150 70C166.569 70 180 83.4315 180 100C180 116.569 166.569 130 150 130" stroke="#1e3a78" stroke-width="4" stroke-linecap="round"/>
  <path d="M150 130C141.716 130 135 123.284 135 115C135 106.716 141.716 100 150 100" stroke="#FF7F00" stroke-width="4" stroke-linecap="round"/>
  <circle cx="150" cy="100" r="5" fill="#4a68b1"/>
  <path d="M110 60L120 70" stroke="#1e3a78" stroke-width="2" stroke-linecap="round"/>
  <path d="M190 60L180 70" stroke="#1e3a78" stroke-width="2" stroke-linecap="round"/>
  <path d="M110 140L120 130" stroke="#1e3a78" stroke-width="2" stroke-linecap="round"/>
  <path d="M190 140L180 130" stroke="#1e3a78" stroke-width="2" stroke-linecap="round"/>
  <rect x="90" y="150" width="120" height="20" rx="10" fill="#1e3a78" fill-opacity="0.1"/>
  <rect x="100" y="158" width="100" height="4" rx="2" fill="#1e3a78"/>
  <circle cx="80" cy="60" r="10" fill="#FF7F00" fill-opacity="0.3"/>
  <circle cx="220" cy="60" r="10" fill="#FF7F00" fill-opacity="0.3"/>
  <circle cx="80" cy="140" r="10" fill="#4a68b1" fill-opacity="0.3"/>
  <circle cx="220" cy="140" r="10" fill="#4a68b1" fill-opacity="0.3"/>
</svg> 